<svg width="640" height="420" viewBox="0 0 640 420" fill="none" xmlns="http://www.w3.org/2000/svg">
  <defs>
    <linearGradient id="browser-bg" x1="62" y1="28" x2="578" y2="394" gradientUnits="userSpaceOnUse">
      <stop stop-color="#F7C96B"/>
      <stop offset="0.48" stop-color="#F8E9C4"/>
      <stop offset="1" stop-color="#8FC7FF"/>
    </linearGradient>
    <radialGradient id="browser-glow" cx="0" cy="0" r="1" gradientUnits="userSpaceOnUse" gradientTransform="translate(486 116) rotate(131.159) scale(206.658 176.902)">
      <stop stop-color="#CDEBFF" stop-opacity="0.88"/>
      <stop offset="1" stop-color="#CDEBFF" stop-opacity="0"/>
    </radialGradient>
  </defs>
  <rect width="640" height="420" rx="32" fill="url(#browser-bg)"/>
  <rect width="640" height="420" rx="32" fill="url(#browser-glow)"/>
  <rect x="88" y="82" width="308" height="198" rx="20" fill="#FCFEFF" fill-opacity="0.92"/>
  <rect x="88" y="82" width="308" height="198" rx="20" stroke="#C8D8E7" stroke-width="4"/>
  <rect x="88" y="82" width="308" height="44" rx="20" fill="#E8F1F9"/>
  <circle cx="122" cy="104" r="7" fill="#F1867B"/>
  <circle cx="146" cy="104" r="7" fill="#F6C56D"/>
  <circle cx="170" cy="104" r="7" fill="#79CF95"/>
  <rect x="120" y="144" width="238" height="18" rx="9" fill="#D9EAF8"/>
  <rect x="120" y="178" width="164" height="14" rx="7" fill="#E5EEF5"/>
  <rect x="120" y="204" width="196" height="14" rx="7" fill="#E5EEF5"/>
  <rect x="120" y="230" width="128" height="14" rx="7" fill="#E5EEF5"/>
  <path d="M470 226C470 179.056 508.056 141 555 141C601.944 141 640 179.056 640 226V420H470V226Z" fill="#99CFFF"/>
  <ellipse cx="474" cy="334" rx="120" ry="70" fill="#9EC8F0" fill-opacity="0.46"/>
  <ellipse cx="478" cy="334" rx="62" ry="72" fill="#BC9166"/>
  <ellipse cx="478" cy="301" rx="41" ry="32" fill="#CCA075"/>
  <ellipse cx="449" cy="291" rx="12" ry="18" fill="#CCA075"/>
  <ellipse cx="507" cy="291" rx="12" ry="18" fill="#CCA075"/>
  <circle cx="466" cy="301" r="3.5" fill="#302A28"/>
  <circle cx="489" cy="301" r="3.5" fill="#302A28"/>
  <path d="M468 315C474 320 481 320 487 315" stroke="#5E3C30" stroke-width="4" stroke-linecap="round"/>
  <path d="M516 176L532 136L548 176L588 192L548 208L532 248L516 208L476 192L516 176Z" fill="#FFF8E1"/>
  <path d="M404 290L451 181L487 253L544 244L452 348L425 281L404 290Z" fill="#FFF7E7"/>
  <path d="M436 284L486 252L456 326L436 284Z" fill="#E8BA72"/>
</svg>
