<svg width="270" height="270" viewBox="-27 -27 324 324" fill="none" xmlns="http://www.w3.org/2000/svg">
<style>
  path { fill: #1F1F1B; }
  @media (prefers-color-scheme: dark) { path { fill: #FFFFFF; } }
</style>
<g clip-path="url(#clip0_242_32)">
<path d="M148.962 46.5513H270V37.2434H148.962V27.9355H0V46.5513H148.962Z"/>
<path d="M139.654 148.962H111.718V158.282H139.654H146.57H270V139.654H139.654V148.962Z"/>
<path d="M139.654 176.897H83.7947V186.205H139.654H148.358H270V167.589H139.654V176.897Z"/>
<path d="M93.1026 65.1671V55.8593H0V74.4869H83.7947H93.1026H270V65.1671H93.1026Z"/>
<path d="M204.821 18.6158H270V9.30789H204.821V0H0V18.6158H186.205H204.821Z"/>
<path d="M121.038 232.757H0V242.065H121.038H270V223.449H121.038V232.757Z"/>
<path d="M176.897 204.833H0V214.141H176.897H270V195.513H176.897V204.833Z"/>
<path d="M65.1671 260.692H0V270H65.1671H83.7947H270V251.384H65.1671V260.692Z"/>
<path d="M130.346 102.41H158.27V93.1026H130.346V83.7947H0V102.41H130.346Z"/>
<path d="M130.346 130.346H186.205V121.038H130.346V111.718H0V130.346H130.346Z"/>
</g>
<defs>
<clipPath id="clip0_242_32">
<rect width="270" height="270" fill="white"/>
</clipPath>
</defs>
</svg>
